<svg xmlns="http://www.w3.org/2000/svg" version="1.1" xmlns:xlink="http://www.w3.org/1999/xlink" xmlns:svgjs="http://svgjs.com/svgjs" width="1440" height="560" preserveAspectRatio="none" viewBox="0 0 1440 560"><g mask="url(&quot;#SvgjsMask1001&quot;)" fill="none"><path d="M1440 0L864.76 0L1440 71.22z" fill="rgba(255, 255, 255, .1)"></path><path d="M864.76 0L1440 71.22L1440 171.1L676.89 0z" fill="rgba(255, 255, 255, .075)"></path><path d="M676.89 0L1440 171.1L1440 181.51L268.06 0z" fill="rgba(255, 255, 255, .05)"></path><path d="M268.05999999999995 0L1440 181.51L1440 411.74L150.58999999999995 0z" fill="rgba(255, 255, 255, .025)"></path><path d="M0 560L187.42 560L0 497.92z" fill="rgba(0, 0, 0, .1)"></path><path d="M0 497.92L187.42 560L864 560L0 368.84000000000003z" fill="rgba(0, 0, 0, .075)"></path><path d="M0 368.84L864 560L965.92 560L0 276.99z" fill="rgba(0, 0, 0, .05)"></path><path d="M0 276.99L965.92 560L1272.23 560L0 93.21000000000001z" fill="rgba(0, 0, 0, .025)"></path></g><defs><mask id="SvgjsMask1001"><rect width="1440" height="560" fill="#ffffff"></rect></mask></defs></svg>